<svg version="1.1" xmlns="http://www.w3.org/2000/svg" viewBox="-3167.427272727273 -1075.2 6671.627272727273 2477.6000000000004"><desc>Created with Snap</desc><defs></defs><g><g><g transform="matrix(0.5,0,0,-0.5,0,0)"><path d="M793 368Q793 477 734 535Q675 593 521 648Q367 703 285 763Q204 824 163 901Q123 979 123 1079Q123 1252 238 1364Q354 1476 541 1476Q669 1476 769 1418Q869 1361 923 1259Q977 1157 977 1035L793 1035Q793 1170 728 1244Q663 1318 541 1318Q430 1318 369 1256Q308 1194 308 1082Q308 990 374 928Q440 866 578 817Q793 746 885 642Q978 538 978 370Q978 193 863 86Q748 -20 550 -20Q423 -20 315 35Q208 91 146 191Q85 292 85 422L269 422Q269 287 344 212Q420 137 550 137Q671 137 732 199Q793 261 793 368ZM1156 473L1156 591Q1156 827 1270 964Q1385 1102 1573 1102Q1761 1102 1875 968Q1990 834 1993 603L1993 489Q1993 254 1879 117Q1765 -20 1575 -20Q1387 -20 1273 113Q1160 246 1156 473ZM1333 592L1333 489Q1333 322 1398 226Q1464 131 1575 131Q1809 131 1816 469L1816 591Q1816 757 1750 853Q1684 950 1573 950Q1464 950 1398 853Q1333 757 1333 592ZM2597 131Q2685 131 2738 185Q2791 240 2796 341L2963 341Q2957 185 2852 82Q2748 -20 2597 -20Q2396 -20 2290 106Q2185 233 2185 483L2185 602Q2185 847 2290 974Q2395 1102 2596 1102Q2762 1102 2859 997Q2957 892 2963 710L2796 710Q2790 830 2738 890Q2687 950 2596 950Q2478 950 2421 872Q2364 795 2362 618L2362 480Q2362 289 2418 210Q2475 131 2597 131ZM3358 1082L3358 0L3181 0L3181 1082L3358 1082ZM3372 1369Q3372 1324 3347 1294Q3322 1264 3271 1264Q3221 1264 3196 1294Q3171 1324 3171 1369Q3171 1414 3196 1445Q3221 1476 3271 1476Q3321 1476 3346 1444Q3372 1413 3372 1369ZM4377 0L4193 0Q4177 35 4170 118Q4076 -20 3930 -20Q3783 -20 3700 62Q3618 145 3618 295Q3618 460 3730 557Q3842 654 4037 656L4167 656L4167 771Q4167 868 4124 909Q4081 950 3993 950Q3913 950 3863 902Q3813 855 3813 782L3636 782Q3636 865 3685 940Q3734 1016 3817 1059Q3900 1102 4002 1102Q4168 1102 4254 1019Q4341 937 4343 779L4343 233Q4344 108 4377 16L4377 0ZM3957 141Q4022 141 4081 177Q4140 213 4167 267L4167 525L4067 525Q3941 523 3868 468Q3795 414 3795 316Q3795 224 3832 182Q3869 141 3957 141ZM4808 1536L4808 0L4631 0L4631 1536L4808 1536Z" fill="#000000" style=""></path></g></g><g transform="matrix(1,0,0,1,-23.5,1085.2)"><g transform="matrix(0.5,0,0,-0.5,0,0)"><path d="M132 1082L299 1082L304 965Q407 1102 567 1102Q854 1102 858 719L858 0L682 0L682 711Q682 838 639 891Q597 945 512 945Q446 945 393 901Q341 857 309 786L309 0L132 0L132 1082ZM1510 -20Q1308 -20 1200 100Q1092 221 1090 454L1090 585Q1090 827 1195 964Q1301 1102 1490 1102Q1680 1102 1774 981Q1868 860 1870 604L1870 488L1266 488L1266 463Q1266 289 1331 210Q1397 131 1520 131Q1598 131 1657 160Q1717 190 1769 254L1861 142Q1746 -20 1510 -20ZM1490 950Q1380 950 1327 874Q1274 799 1267 640L1693 640L1693 664Q1686 818 1637 884Q1589 950 1490 950ZM2138 1344L2314 1344L2314 1082L2477 1082L2477 939L2314 939L2314 268Q2314 204 2335 171Q2356 138 2407 138Q2442 138 2478 150L2476 0Q2416 -20 2353 -20Q2248 -20 2193 55Q2138 130 2138 267L2138 939L1973 939L1973 1082L2138 1082L2138 1344ZM3288 1082L3494 311L3658 1082L3833 1082L3568 0L3427 0L3216 774L3010 0L2868 0L2605 1082L2779 1082L2947 330L3148 1082L3288 1082ZM3981 473L3981 591Q3981 827 4095 964Q4210 1102 4398 1102Q4586 1102 4700 968Q4815 834 4818 603L4818 489Q4818 254 4704 117Q4590 -20 4400 -20Q4212 -20 4098 113Q3985 246 3981 473ZM4158 592L4158 489Q4158 322 4223 226Q4289 131 4400 131Q4634 131 4641 469L4641 591Q4641 757 4575 853Q4509 950 4398 950Q4289 950 4223 853Q4158 757 4158 592ZM5492 1088L5493 916Q5456 923 5413 923Q5277 923 5223 774L5223 0L5046 0L5046 1082L5218 1082L5221 972Q5292 1102 5422 1102Q5464 1102 5492 1088ZM6235 0L5941 495L5847 387L5847 0L5670 0L5670 1536L5847 1536L5847 617L6184 1082L6396 1082L6052 630L6441 0L6235 0Z" fill="#000000" style=""></path></g></g><g transform="matrix(2.4909,0,0,2.4909,-2966.0909,1070.2909)"><g transform="matrix(0.5,0,0,-0.5,0,0)"><path d="M793 368Q793 477 734 535Q675 593 521 648Q367 703 285 763Q204 824 163 901Q123 979 123 1079Q123 1252 238 1364Q354 1476 541 1476Q669 1476 769 1418Q869 1361 923 1259Q977 1157 977 1035L793 1035Q793 1170 728 1244Q663 1318 541 1318Q430 1318 369 1256Q308 1194 308 1082Q308 990 374 928Q440 866 578 817Q793 746 885 642Q978 538 978 370Q978 193 863 86Q748 -20 550 -20Q423 -20 315 35Q208 91 146 191Q85 292 85 422L269 422Q269 287 344 212Q420 137 550 137Q671 137 732 199Q793 261 793 368ZM2169 1456L2169 0L1985 0L1402 1122L1402 0L1218 0L1218 1456L1402 1456L1987 329L1987 1456L2169 1456Z" fill="#000000" style=""></path></g></g></g></svg>